<svg xmlns="http://www.w3.org/2000/svg" enable-background="new 0 0 64 64" viewBox="0 0 64 64" id="backward"><path fill="red" d="M21.42,39.34c-0.55,0-1.07-0.31-1.31-0.84c-0.33-0.72-0.01-1.57,0.72-1.9c4.41-1.99,7.25-6.4,7.25-11.24
				c0-6.8-5.53-12.32-12.32-12.32H2c-0.79,0-1.43-0.64-1.43-1.43c0-0.79,0.64-1.43,1.43-1.43h13.76c8.38,0,15.19,6.81,15.19,15.19
				c0,5.96-3.51,11.39-8.94,13.85C21.82,39.29,21.62,39.34,21.42,39.34z"></path><path fill="red" d="M12.76,23.71c-0.36,0-0.73-0.14-1.01-0.42L0.99,12.62c-0.27-0.27-0.42-0.63-0.42-1.01
				c0-0.38,0.15-0.75,0.42-1.02L11.16,0.42c0.56-0.56,1.47-0.56,2.03,0c0.56,0.56,0.56,1.47,0,2.03L4.03,11.6l9.74,9.66
				c0.56,0.56,0.57,1.46,0.01,2.03C13.5,23.57,13.13,23.71,12.76,23.71z"></path><g><path fill="#2d2d2d" d="M62,64H3.92c-0.79,0-1.43-0.64-1.43-1.43V30.64c0-0.79,0.64-1.43,1.43-1.43s1.43,0.64,1.43,1.43v30.49h55.21
			V5.75H23.79c-0.79,0-1.43-0.64-1.43-1.43c0-0.79,0.64-1.43,1.43-1.43H62c0.79,0,1.43,0.64,1.43,1.43v58.25
			C63.43,63.36,62.79,64,62,64z"></path></g></svg>