<svg xmlns="http://www.w3.org/2000/svg" enable-background="new 0 0 47.5 47.5" viewBox="0 0 47.5 47.5" id="bento"><defs><clipPath id="a"><path d="M0 38h38V0H0v38Z"></path></clipPath></defs><g clip-path="url(#a)" transform="matrix(1.25 0 0 -1.25 0 47.5)"><path fill="#292f33" d="M0 0h-26a4 4 0 0 1-4-4v-28a4 4 0 0 1 4-4H0a4 4 0 0 1 4 4v28a4 4 0 0 1-4 4" transform="translate(32 37)"></path><path fill="#292f33" d="M0 0a4 4 0 0 0-4-4h-1a4 4 0 0 0-4 4v2a4 4 0 0 0 4 4h1a4 4 0 0 0 4-4V0Z" transform="translate(15 26)"></path><path fill="#be1931" d="M0 0a2 2 0 0 0-2-2h-15a2 2 0 0 0-2 2v8a2 2 0 0 0 2 2h15a2 2 0 0 0 2-2V0Z" transform="translate(23 10)"></path><path fill="#be1931" d="M0 0a2 2 0 0 1-2 2h-5a2 2 0 0 1-2-2v-8a2 2 0 0 1 2-2h5a2 2 0 0 1 2 2v8z" transform="translate(34 18)"></path><path fill="#be1931" d="M0 0a2 2 0 0 0 2 2h13a2 2 0 0 0 2-2v-9a2 2 0 0 0-2-2H2a2 2 0 0 0-2 2v9z" transform="translate(17 33)"></path><path fill="#be1931" d="M0 0a2 2 0 0 0-2-2h-7a2 2 0 0 0-2 2v9a2 2 0 0 0 2 2h7a2 2 0 0 0 2-2V0Z" transform="translate(15 24)"></path><path fill="#dd2e44" d="M0 0a2 2 0 0 0-2-2h-7a2 2 0 0 0-2 2v6a2 2 0 0 0 2 2h7a2 2 0 0 0 2-2V0Z" transform="translate(15 24)"></path><path fill="#dd2e44" d="M0 0a2 2 0 0 0-2-2h-13a2 2 0 0 0-2 2v6a2 2 0 0 0 2 2h13a2 2 0 0 0 2-2V0Z" transform="translate(34 24)"></path><path fill="#e1e8ed" d="M0 0a2 2 0 0 0-2-2h-15a2 2 0 0 0-2 2v5a2 2 0 0 0 2 2h15a2 2 0 0 0 2-2V0Z" transform="translate(23 10)"></path><path fill="#dd2e44" d="M0 0a2 2 0 0 0-2-2h-5a2 2 0 0 0-2 2v5a2 2 0 0 0 2 2h5a2 2 0 0 0 2-2V0Z" transform="translate(34 10)"></path><path fill="#ffac33" d="M0 0c1.315-1.478 1.908-3.098 1.322-3.619L.264-4.56c-.585-.522-2.126.255-3.441 1.733l-3.571 4.013c-1.314 1.479-1.907 3.099-1.321 3.62l1.059.941c.586.521 2.124-.255 3.439-1.733L0 0Z" transform="translate(28.015 27.76)"></path><path fill="#ffd983" d="M0 0c-.598-1.539-1.477-2.633-1.961-2.444l-.877.341c-.485.188-.392 1.589.205 3.126l1.625 4.178C-.409 6.739.469 7.833.954 7.645l.876-.341c.485-.189.394-1.589-.205-3.127L0 0Z" transform="translate(23.28 25.924)"></path><path fill="#ffd983" d="M0 0c-1.562-.535-2.965-.568-3.133-.076l-.305.891c-.168.492.962 1.324 2.523 1.858l4.242 1.45c1.562.533 2.964.567 3.133.074l.304-.889c.169-.493-.961-1.325-2.523-1.858L0 0Z" transform="translate(24.113 25.464)"></path><path fill="#5c913b" d="M0 0c.373 4.106 4.907.961 7.135-1.049C5.795-2.534-.452-4.979 0 0" transform="translate(7.442 29.127)"></path><path fill="#5c913b" d="M0 0c3.739 1.737 3.293-3.763 2.672-6.698C.716-6.284-4.534-2.108 0 0" transform="translate(7.585 29.216)"></path><path fill="#77b255" d="M0 0c-1.2 1.6 1 5 6 5 1-1-3-9-6-5" transform="translate(6 29)"></path><path fill="#b2c2cc" d="M0 0a.999.999 0 0 0-.707 1.707l1 1a.999.999 0 1 0 1.414-1.414l-1-1A.997.997 0 0 0 0 0" transform="translate(7 10)"></path><path fill="#b2c2cc" d="M0 0a.997.997 0 0 0-.707.293l-1.001 1A1 1 0 0 0-.293 2.707l1-1A.999.999 0 0 0 0 0" transform="translate(19.417 9.501)"></path><path fill="#b2c2cc" d="M0 0c-.255 0-.511.098-.707.292l-.459.458A1 1 0 0 0 .248 2.166l.459-.458A1 1 0 0 0 0 0" transform="translate(13.25 13.792)"></path><path fill="#b26304" d="M0 0a1.999 1.999 0 0 0-.257-2.816l-2.305-1.921a1.999 1.999 0 0 0-2.816.257l-1.921 2.304A2 2 0 0 0-7.042.641l2.305 1.921a2 2 0 0 0 2.816-.257L0 0Z" transform="translate(33.15 13.588)"></path><path fill="#f4900c" d="M0 0a1.999 1.999 0 0 0-.257-2.816l-2.305-1.921a1.999 1.999 0 0 0-2.816.257l-1.921 2.304A2 2 0 0 0-7.042.641l2.305 1.921a2 2 0 0 0 2.816-.257L0 0Z" transform="translate(33.15 15.588)"></path><path fill="#ccd6dd" d="M0 0a1 1 0 1 0-2 0 1 1 0 0 0 2 0" transform="translate(14 11)"></path><path fill="#ccd6dd" d="M0 0a1 1 0 1 0-2 0 1 1 0 1 0 2 0" transform="translate(22 15)"></path></g></svg>