<svg xmlns="http://www.w3.org/2000/svg" enable-background="new 0 0 512 512" viewBox="0 0 512 512" id="easel"><path fill="#283954" d="M68.5 331H16V200.25c0-4.143-3.357-7.5-7.5-7.5s-7.5 3.357-7.5 7.5V338.5c0 4.143 3.357 7.5 7.5 7.5h60c4.143 0 7.5-3.357 7.5-7.5S72.643 331 68.5 331zM158.5 61H8.5C4.357 61 1 64.357 1 68.5v101.75c0 4.143 3.357 7.5 7.5 7.5s7.5-3.357 7.5-7.5V76h142.5c4.143 0 7.5-3.357 7.5-7.5S162.643 61 158.5 61zM503.5 61h-22.943c4.12-7.457 8.149-14.959 12.071-22.498 6.415-12.373 3.4-26.895-7.014-33.779-10.412-6.879-24.948-3.958-33.815 6.802C438.621 27.539 425.86 44.092 413.615 61H353.5c-4.143 0-7.5 3.357-7.5 7.5s3.357 7.5 7.5 7.5h49.455c-4.564 6.549-9.056 13.137-13.448 19.769-2.287 3.454-1.342 8.107 2.111 10.395s8.107 1.341 10.395-2.111c18.953-28.619 39.601-56.543 61.365-82.992 3.969-4.816 9.975-6.461 13.967-3.822 3.996 2.642 4.842 8.815 1.971 14.352-28.106 54.038-62.161 107.459-102.57 158.611-2.568 3.251-2.015 7.967 1.235 10.534 3.236 2.556 7.956 2.029 10.534-1.235 31.317-39.643 59-80.733 83.578-123.499H496v255h-52.5c-4.143 0-7.5 3.357-7.5 7.5s3.357 7.5 7.5 7.5h60c4.143 0 7.5-3.357 7.5-7.5v-270C511 64.357 507.643 61 503.5 61z"></path><path fill="#283954" d="M383.529,118.8c-3.519-2.186-8.145-1.105-10.329,2.411c-10.004,16.098-19.76,32.86-28.997,49.822
				c-1.98,3.638-0.638,8.192,3,10.174c3.645,1.984,8.195,0.63,10.174-3c9.101-16.711,18.711-33.224,28.563-49.078
				C388.127,125.61,387.047,120.986,383.529,118.8z"></path><g><path fill="#da5461" d="M443.5 308.5H188.1c-4.143 0-7.5 3.357-7.5 7.5s3.357 7.5 7.5 7.5H436v30H76v-30h82.1c4.143 0 7.5-3.357 7.5-7.5s-3.357-7.5-7.5-7.5H68.5c-4.143 0-7.5 3.357-7.5 7.5v45c0 4.143 3.357 7.5 7.5 7.5h48.496L83.022 501.646C81.814 506.383 85.397 511 90.29 511h46.44c3.428 0 6.419-2.324 7.267-5.646L167.44 413.5H344.56l23.443 91.854c.848 3.321 3.839 5.646 7.267 5.646h46.44c4.889 0 8.477-4.612 7.268-9.354L395.004 368.5H443.5c4.143 0 7.5-3.357 7.5-7.5v-45C451 311.857 447.643 308.5 443.5 308.5zM130.904 496h-30.96l32.533-127.5h30.968L130.904 496zM171.269 398.5l7.657-30h154.149l7.657 30H171.269zM412.056 496h-30.96l-32.541-127.5h30.968L412.056 496zM158.5 98.5h195c4.143 0 7.5-3.357 7.5-7.5V46c0-4.143-3.357-7.5-7.5-7.5H286V31c0-16.542-13.458-30-30-30s-30 13.458-30 30v7.5h-67.5c-4.143 0-7.5 3.357-7.5 7.5v45C151 95.143 154.357 98.5 158.5 98.5zM241 31c0-8.271 6.729-15 15-15s15 6.729 15 15v7.5h-30V31zM166 53.5h180v30H166V53.5zM336.495 169.229c-12.607 3.66-22.97 11.574-27.044 20.652-4.165 9.281-4.198 20.118-.104 34.105 3.758 12.836 2.309 27.398-3.96 39.924-.002.003-.044.086-.046.09l-.058.113c-1.353 2.639-1.022 5.827.841 8.134 1.875 2.321 4.929 3.293 7.774 2.532 5.871-1.573 57.751-15.952 71.227-36.346 14.556-22.029 9.556-51.08-11.146-64.76C363.736 166.907 350.073 165.286 336.495 169.229zM372.609 230.165c-6.156 9.318-29.082 19.339-48.335 25.795 3.05-11.979 2.91-24.431-.531-36.188-3.034-10.364-3.227-17.91-.606-23.749 2.914-6.495 14.858-13.916 27.887-13.916 5.512 0 10.596 1.38 14.686 4.082C379.511 195.31 382.606 215.037 372.609 230.165z"></path></g></svg>