<svg xmlns="http://www.w3.org/2000/svg" viewBox="0 0 64 64" id="home"><path fill="#474f54" d="M44.7 6.4H55v16.9H44.7V6.4z"></path><path fill="#f2f2f2" d="M54.9 26.3v34.4H10.8V26.3l22.1-18 22 18z"></path><path fill="#e7e7f2" d="M54.9 26.3v34.4H32.8V8.4l22.1 17.9z"></path><path fill="#ff9100" d="m61.7 26.5-4.3 5.2-24.6-20-24.6 20L4 26.5 32.8 3l28.9 23.5z"></path><path fill="#ff641a" d="m61.7 26.5-4.3 5.2-24.6-20V3l28.9 23.5z"></path><path fill="#575f64" d="M21 30v23.7h23.7V30H21z"></path><path fill="#474f54" d="M32.8 30h11.8v23.7H32.8V30z"></path><path fill="#57d9d4" d="M24.4 33.4h6.8v6.8h-6.8v-6.8z"></path><path fill="#26bfbf" d="M34.5 33.4h6.8v6.8h-6.8v-6.8z"></path><path fill="#57d9d4" d="M24.4 43.6h6.8v6.8h-6.8v-6.8z"></path><path fill="#26bfbf" d="M34.5 43.6h6.8v6.8h-6.8v-6.8z"></path></svg>