<svg xmlns="http://www.w3.org/2000/svg" data-name="Layer 3" viewBox="0 0 64 64" id="input"><path fill="#0059be" d="M59,49a3,3,0,0,0,3-3V28a3,3,0,0,0-3-3H5a3,3,0,0,0-3,3H2V46a3,3,0,0,0,3,3Z"></path><polygon fill="#8dbf00" points="32 2 26 12 29 12 29 21 35 21 35 12 38 12 32 2"></polygon><path fill="#004180" d="M59,24H5a4,4,0,0,0-4,4V46a4,4,0,0,0,4,4H59a4,4,0,0,0,4-4V28A4,4,0,0,0,59,24ZM5,30v2H3V30Zm36,6H39V34h2Zm2-2h2v2H43Zm-6,2H35V34h2Zm-4,0H31V34h2Zm-4,0H27V34h2Zm-4,0H23V34h2Zm-4,0H19V34h2Zm-4,0H15V34h2Zm0,2v2H15V38Zm2,0h2v2H19Zm4,0h2v2H23Zm4,0h2v2H27Zm4,0h2v2H31Zm4,0h2v2H35Zm4,0h2v2H39Zm4,0h2v2H43Zm4,0h2v2H47Zm0-2V34h2v2Zm4-2h2v2H51Zm0-2V30h2v2Zm-2,0H47V30h2Zm-4,0H43V30h2Zm-4,0H39V30h2Zm-4,0H35V30h2Zm-4,0H31V30h2Zm-4,0H27V30h2Zm-4,0H23V30h2Zm-4,0H19V30h2Zm-4,0H15V30h2Zm-4,0H11V30h2Zm0,2v2H11V34ZM9,36H7V34H9Zm0,2v2H7V38Zm2,0h2v2H11Zm2,4v2H11V42Zm2,0h2v2H15Zm4,0h2v2H19Zm4,0h2v2H23Zm4,0h2v2H27Zm4,0h2v2H31Zm4,0h2v2H35Zm4,0h2v2H39Zm4,0h2v2H43Zm4,0h2v2H47Zm4,0h2v2H51Zm0-2V38h2v2Zm4-2h2v2H55Zm0-2V34h2v2Zm0-4V30h2v2Zm0-4V26h2v2Zm-2,0H51V26h2Zm-4,0H47V26h2Zm-4,0H43V26h2Zm-4,0H39V26h2Zm-4,0H35V26h2Zm-4,0H31V26h2Zm-4,0H27V26h2Zm-4,0H23V26h2Zm-4,0H19V26h2Zm-4,0H15V26h2Zm-4,0H11V26h2ZM9,28H7V26H9Zm0,2v2H7V30ZM5,34v2H3V34Zm0,4v2H3V38Zm0,4v2H3V42Zm2,0H9v2H7Zm2,4v2H7V46Zm2,0h2v2H11Zm4,0h2v2H15Zm4,0h2v2H19Zm4,0H41v2H23Zm20,0h2v2H43Zm4,0h2v2H47Zm4,0h2v2H51Zm4,0h2v2H55Zm0-2V42h2v2Zm4-2h2v2H59Zm0-2V38h2v2Zm0-4V34h2v2Zm0-4V30h2v2Zm2-4H59V26A2,2,0,0,1,61,28ZM5,26v2H3A2,2,0,0,1,5,26ZM3,46H5v2A2,2,0,0,1,3,46Zm56,2V46h2A2,2,0,0,1,59,48Z"></path><path fill="#d08d78" d="M1,60v3H13l3-9,.63-.25a12.347,12.347,0,0,0,6.47-5.96,12.643,12.643,0,0,1,2.32-3.21l2.17-2.17a1.414,1.414,0,0,0-1-2.41,5.267,5.267,0,0,0-2.91.88L22,42V35.54a2.22,2.22,0,0,1,.24-1.02A7.192,7.192,0,0,0,23,31.3,1.3,1.3,0,0,0,21.7,30a1.259,1.259,0,0,0-.71.21,1.418,1.418,0,0,0-2.4-.8c-.2.2-.39.4-.57.61l-.4-.4a2.11,2.11,0,0,0-3.25.32c-.21.32-.41.66-.6,1A1.883,1.883,0,0,0,12.15,30a1.854,1.854,0,0,0-1.66,1.02,27.033,27.033,0,0,0-2.21,6.23l-.2.87A45.588,45.588,0,0,0,7,48Z"></path><path fill="#f2b9a1" d="M9,48a45.588,45.588,0,0,1,1.08-9.88l.2-.87a27.033,27.033,0,0,1,2.21-6.23,1.787,1.787,0,0,1,.662-.716,1.946,1.946,0,0,1,.618.636c.19-.34.39-.68.6-1a2.11,2.11,0,0,1,3.25-.32l.4.4c.18-.21.37-.41.57-.61a1.418,1.418,0,0,1,2.4.8A1.259,1.259,0,0,1,21.7,30,1.3,1.3,0,0,1,23,31.3a7.192,7.192,0,0,1-.76,3.22A2.22,2.22,0,0,0,22,35.54V42l1.68-1.12A5.267,5.267,0,0,1,26.59,40a1.414,1.414,0,0,1,1,2.41l-2.17,2.17a12.643,12.643,0,0,0-2.32,3.21,12.347,12.347,0,0,1-6.47,5.96L16,54l-3,9H2Z"></path><path fill="#d08d78" d="M18.98 38.2l.431-2.15a13.812 13.812 0 012.032-4.913l-.965-1.781a2.228 2.228 0 00-.7.674 15.827 15.827 0 00-2.327 5.625L17.02 37.8zM15.981 37.194l.28-1.41a11.112 11.112 0 012.514-5.109l-1.51-1.311A13.124 13.124 0 0014.3 35.4l-.28 1.41zM12.981 37.194l.51-2.57a11.317 11.317 0 011.158-3.2.991.991 0 00.121-.476l-1.009 0-.87-.47a13.288 13.288 0 00-1.362 3.761l-.51 2.57zM63 60v3H51l-3-9-.63-.25a12.347 12.347 0 01-6.47-5.96 12.643 12.643 0 00-2.32-3.21l-2.17-2.17a1.414 1.414 0 011-2.41 5.267 5.267 0 012.91.88L42 42V35.54a2.22 2.22 0 00-.24-1.02A7.192 7.192 0 0141 31.3 1.3 1.3 0 0142.3 30a1.259 1.259 0 01.71.21 1.418 1.418 0 012.4-.8c.2.2.39.4.57.61l.4-.4a2.11 2.11 0 013.25.32c.21.32.41.66.6 1A1.883 1.883 0 0151.85 30a1.854 1.854 0 011.66 1.02 27.033 27.033 0 012.21 6.23l.2.87A45.588 45.588 0 0157 48z"></path><path fill="#f2b9a1" d="M55,48a45.588,45.588,0,0,0-1.08-9.88l-.2-.87a27.033,27.033,0,0,0-2.21-6.23,1.787,1.787,0,0,0-.662-.716,1.946,1.946,0,0,0-.618.636c-.19-.34-.39-.68-.6-1a2.11,2.11,0,0,0-3.25-.32l-.4.4c-.18-.21-.37-.41-.57-.61a1.418,1.418,0,0,0-2.4.8A1.259,1.259,0,0,0,42.3,30,1.3,1.3,0,0,0,41,31.3a7.192,7.192,0,0,0,.76,3.22A2.22,2.22,0,0,1,42,35.54V42l-1.68-1.12A5.267,5.267,0,0,0,37.41,40a1.414,1.414,0,0,0-1,2.41l2.17,2.17a12.643,12.643,0,0,1,2.32,3.21,12.347,12.347,0,0,0,6.47,5.96L48,54l3,9H62Z"></path><path fill="#d08d78" d="M45.02 38.2l-.431-2.15a13.812 13.812 0 00-2.032-4.913l.965-1.781a2.228 2.228 0 01.7.674 15.827 15.827 0 012.327 5.625l.43 2.153zM48.019 37.194l-.28-1.41a11.112 11.112 0 00-2.514-5.109l1.51-1.311A13.124 13.124 0 0149.7 35.4l.28 1.41zM51.019 37.194l-.51-2.57a11.317 11.317 0 00-1.158-3.2.991.991 0 01-.121-.476l1.009 0 .87-.47a13.288 13.288 0 011.362 3.761l.51 2.57z"></path><path fill="#a6d109" d="M38,12,32,2,31,3.667V15a4,4,0,0,0,4,4V12Z"></path></svg>