<svg xmlns="http://www.w3.org/2000/svg" fill-rule="evenodd" stroke-linejoin="round" stroke-miterlimit="2" clip-rule="evenodd" viewBox="0 0 32 32" id="map"><path fill="#ffc93c" d="M4,27.498c-0,0.616 0.284,1.198 0.77,1.577c0.486,0.379 1.119,0.513 1.716,0.363c1.789,-0.449 4.05,-1.016 5.028,-1.261c0.319,-0.08 0.653,-0.08 0.972,0c1.429,0.358 5.599,1.404 7.028,1.762c0.319,0.08 0.653,0.08 0.972,0c1.167,-0.292 4.164,-1.044 6,-1.504c0.89,-0.223 1.514,-1.023 1.514,-1.94c0,-3.115 0,-10.131 0,-13.932c0,-0.616 -0.284,-1.197 -0.77,-1.576c-0.486,-0.379 -1.119,-0.513 -1.716,-0.363c-2.349,0.588 -5.514,1.382 -5.514,1.382l-8,-2.006l-8,2.006l0,15.492Z"></path><path fill="#f24545" d="M20,2c2.76,0 5,2.24 5,5c0,4 -5,7 -5,7c0,0 -5,-3 -5,-7c0,-2.76 2.24,-5 5,-5Z"></path><g><path fill="#493323" d="M14.586,9.617c-0.362,-0.814 -0.586,-1.694 -0.586,-2.617c0,-3.311 2.689,-6 6,-6c3.311,-0 6,2.689 6,6c0,0.924 -0.224,1.805 -0.588,2.622c0.854,-0.171 1.743,0.038 2.433,0.576c0.729,0.569 1.155,1.441 1.155,2.365c0,3.801 0,10.817 0,13.932c0,1.375 -0.936,2.575 -2.27,2.91l-6,1.504c-0.479,0.12 -0.981,0.12 -1.46,0l-7.027,-1.762c-0.159,-0.04 -0.327,-0.04 -0.486,0c-0,0 -5.027,1.261 -5.027,1.261c-0.897,0.224 -1.847,0.024 -2.575,-0.545c-0.729,-0.568 -1.155,-1.441 -1.155,-2.365l0,-15.492c-0,-0.458 0.312,-0.858 0.757,-0.97l8,-2.006c0.159,-0.04 0.327,-0.04 0.486,0l2.343,0.587Zm1.624,2.47l-4.21,-1.056c-0,-0 -7,1.755 -7,1.755l-0,14.712c-0,0.308 0.142,0.599 0.385,0.788c0.243,0.19 0.559,0.257 0.858,0.182l5.027,-1.261c0.479,-0.12 0.981,-0.12 1.46,0l7.027,1.762c0.159,0.04 0.327,0.04 0.486,0c0,0 6,-1.504 6,-1.504c0.445,-0.112 0.757,-0.512 0.757,-0.97l0,-13.932c0,-0.308 -0.142,-0.598 -0.385,-0.788c-0.243,-0.189 -0.559,-0.256 -0.858,-0.182l-1.967,0.494c-1.51,1.713 -3.276,2.77 -3.276,2.77c-0.316,0.191 -0.712,0.191 -1.028,0c-0,0 -1.766,-1.057 -3.276,-2.77Zm6.79,13.913l1,0c0.552,0 1,-0.448 1,-1c0,-0.552 -0.448,-1 -1,-1l-1,0c-0.552,0 -1,0.448 -1,1c0,0.552 0.448,1 1,1Zm-15,0l1,0c0.552,0 1,-0.448 1,-1c0,-0.552 -0.448,-1 -1,-1l-1,0c-0.552,0 -1,0.448 -1,1c0,0.552 0.448,1 1,1Zm1,-5.999c-0,1.634 1.112,3.058 2.697,3.454l4.333,1.083c1.195,0.299 2.461,0.031 3.432,-0.728c0.971,-0.758 1.538,-1.921 1.538,-3.152l0,-2.658c0,-0.552 -0.448,-1 -1,-1c-0.552,-0 -1,0.448 -1,1l0,2.658c0,0.616 -0.284,1.197 -0.769,1.576c-0.486,0.379 -1.119,0.513 -1.716,0.364l-4.333,-1.083c-0.695,-0.174 -1.182,-0.798 -1.182,-1.514c0,-0.552 -0.448,-1 -1,-1c-0.552,0 -1,0.448 -1,1Zm15,-2.001l1,-0c0.552,0 1,-0.448 1,-1c0,-0.552 -0.448,-1 -1,-1l-1,-0c-0.552,0 -1,0.448 -1,1c0,0.552 0.448,1 1,1Zm-14,-3.414l-0.293,-0.293c-0.39,-0.39 -1.024,-0.39 -1.414,-0c-0.39,0.39 -0.39,1.024 -0,1.414l0.293,0.293l-0.293,0.293c-0.39,0.39 -0.39,1.024 -0,1.414c0.39,0.39 1.024,0.39 1.414,0l0.293,-0.293l0.293,0.293c0.39,0.39 1.024,0.39 1.414,0c0.39,-0.39 0.39,-1.024 0,-1.414l-0.293,-0.293l0.293,-0.293c0.39,-0.39 0.39,-1.024 0,-1.414c-0.39,-0.39 -1.024,-0.39 -1.414,-0l-0.293,0.293Zm10,-11.586c2.208,0 4,1.792 4,4c0,1.361 -0.712,2.572 -1.528,3.552c-0.868,1.041 -1.877,1.828 -2.472,2.248c-0.595,-0.42 -1.604,-1.207 -2.472,-2.248c-0.816,-0.98 -1.528,-2.191 -1.528,-3.552c0,-2.208 1.792,-4 4,-4Zm0,3c0.552,0 1,0.448 1,1c0,0.552 -0.448,1 -1,1c-0.552,-0 -1,-0.448 -1,-1c0,-0.552 0.448,-1 1,-1Z"></path></g></svg>