<svg xmlns="http://www.w3.org/2000/svg" width="64" height="64" fill="none" id="menu"><path fill="#D0D2E0" d="M0 8c0-2.485 0-3.728.406-4.708A5.333 5.333 0 0 1 3.292.406C4.272 0 5.515 0 8 0h48c2.485 0 3.727 0 4.708.406a5.333 5.333 0 0 1 2.886 2.886C64 4.272 64 5.515 64 8v48c0 2.485 0 3.727-.406 4.708a5.333 5.333 0 0 1-2.886 2.886C59.728 64 58.485 64 56 64H8c-2.485 0-3.728 0-4.708-.406a5.333 5.333 0 0 1-2.886-2.886C0 59.728 0 58.485 0 56V8Z"></path><path fill="#2B3151" fill-rule="evenodd" d="M13.333 17.333c0-.736.597-1.333 1.334-1.333h34.666a1.333 1.333 0 0 1 0 2.667H14.667a1.333 1.333 0 0 1-1.334-1.334zm0 14.667c0-.736.597-1.333 1.334-1.333h34.666a1.333 1.333 0 0 1 0 2.667H14.667A1.333 1.333 0 0 1 13.333 32zm0 14.666c0-.736.597-1.333 1.334-1.333h34.666a1.333 1.333 0 0 1 0 2.667H14.667a1.333 1.333 0 0 1-1.334-1.334z" clip-rule="evenodd"></path></svg>