<svg xmlns="http://www.w3.org/2000/svg" viewBox="0 0 24 24" id="mirror"><defs><linearGradient id="a" x1="12" x2="12" y1="22.79" y2="1.21" gradientUnits="userSpaceOnUse"><stop offset="0" stop-color="#43cbff"></stop><stop offset="1" stop-color="#9708cc"></stop></linearGradient></defs><path fill="url(#a)" d="M18.94 9.42c0-4.53-3.12-8.21-7-8.21-8.78.31-9.35 14.92-.83 16.35v4.23a1 1 0 0 0 2 0V17.5c3.32-.66 5.83-4.03 5.83-8.08Zm-7 6.2C5.41 15.36 5.41 3.48 12 3.21c6.54.27 6.54 12.15 0 12.41ZM15.18 7 11 12.4a1 1 0 0 1-1.59-1.22l4.19-5.42A1 1 0 0 1 15.18 7ZM9.93 9.44a1 1 0 0 1-1.52-1.3l2.05-2.41A1 1 0 0 1 12 7Z"></path></svg>